<?xml version="1.0" encoding="UTF-8" standalone="no"?>
<!-- Created with Inkscape (http://www.inkscape.org/) -->

<svg
   xmlns:dc="http://purl.org/dc/elements/1.1/"
   xmlns:cc="http://creativecommons.org/ns#"
   xmlns:rdf="http://www.w3.org/1999/02/22-rdf-syntax-ns#"
   xmlns:svg="http://www.w3.org/2000/svg"
   xmlns="http://www.w3.org/2000/svg"
   xmlns:sodipodi="http://sodipodi.sourceforge.net/DTD/sodipodi-0.dtd"
   xmlns:inkscape="http://www.inkscape.org/namespaces/inkscape"
   width="55.10146mm"
   height="55.10146mm"
   viewBox="0 0 55.10146 55.10146"
   version="1.1"
   id="svg8"
   inkscape:version="0.92.3 (2405546, 2018-03-11)"
   sodipodi:docname="drgblc.svg">
  <defs
     id="defs2" />
  <sodipodi:namedview
     id="base"
     pagecolor="#ffffff"
     bordercolor="#666666"
     borderopacity="1.0"
     inkscape:pageopacity="0.0"
     inkscape:pageshadow="2"
     inkscape:zoom="2"
     inkscape:cx="45.498942"
     inkscape:cy="100.64123"
     inkscape:document-units="mm"
     inkscape:current-layer="layer3"
     showgrid="false"
     inkscape:window-width="1366"
     inkscape:window-height="705"
     inkscape:window-x="-8"
     inkscape:window-y="-8"
     inkscape:window-maximized="1" />
  <metadata
     id="metadata5">
    <rdf:RDF>
      <cc:Work
         rdf:about="">
        <dc:format>image/svg+xml</dc:format>
        <dc:type
           rdf:resource="http://purl.org/dc/dcmitype/StillImage" />
        <dc:title></dc:title>
      </cc:Work>
    </rdf:RDF>
  </metadata>
  <g
     inkscape:label="Camada 1"
     inkscape:groupmode="layer"
     id="layer1"
     style="display:inline"
     sodipodi:insensitive="true"
     transform="translate(-25.828955,-118.9675)">
    <circle
       style="fill:#ffffff;fill-opacity:1;stroke:none;stroke-width:0.465;stroke-miterlimit:4;stroke-dasharray:none;stroke-opacity:1"
       id="path1205-3"
       cx="53.22673"
       cy="146.41701"
       r="27.31823" />
  </g>
  <g
     inkscape:groupmode="layer"
     id="layer2"
     inkscape:label="Camada 2"
     transform="translate(-25.828955,-118.9675)"
     sodipodi:insensitive="true">
    <path
       style="fill:#141414;fill-opacity:1;stroke:none;stroke-width:0.26458332px;stroke-linecap:butt;stroke-linejoin:miter;stroke-opacity:1"
       d="m 54.270163,141.25723 c 0.695078,0.81481 1.43863,1.47209 1.967521,2.82701 0.315272,0.60761 0.38844,1.36929 1.007746,1.78343 l 3.371299,1.69525 0.882043,0.33388 c 0.673073,0.16595 1.321565,0.47939 2.0343,0.40737 0.402972,-0.0841 0.266675,-0.37799 0.305924,-0.60358 0.0386,0.29753 0.253626,0.35779 0.04349,0.84878 -0.314616,0.37915 -0.305443,0.65423 -1.429951,1.2937 -0.678324,0.2559 -1.566601,0.0628 -2.198291,-0.0819 -2.058772,-0.73288 -1.847419,-2.35447 -4.691745,-3.69775 -3.047362,-1.84472 -3.168058,-1.77448 -4.046904,-2.67815 1.092829,0.30045 1.942161,0.88243 3.514769,-0.38162 z"
       id="path1223"
       inkscape:connector-curvature="0"
       sodipodi:nodetypes="cccccccccccccc" />
    <path
       style="fill:#141414;fill-opacity:1;stroke:none;stroke-width:0.26458332px;stroke-linecap:butt;stroke-linejoin:miter;stroke-opacity:1"
       d="m 54.270163,141.25723 c -3.568576,-2.31389 -5.92849,-4.20615 -7.604278,-5.85977 3.551073,2.00511 5.636142,2.91072 5.820907,2.3911 l 1.783371,3.46867"
       id="path1225"
       inkscape:connector-curvature="0"
       sodipodi:nodetypes="cccc" />
    <path
       style="fill:#141414;fill-opacity:1;stroke:none;stroke-width:0.26458332px;stroke-linecap:butt;stroke-linejoin:miter;stroke-opacity:1"
       d="m 59.008284,137.53066 c -0.911338,-2.70734 -1.705634,-6.17775 -3.49872,-8.57719 1.689339,4.83514 2.174074,7.38765 2.17787,7.94881 z"
       id="path1227"
       inkscape:connector-curvature="0"
       sodipodi:nodetypes="cccc" />
    <path
       style="fill:#141414;fill-opacity:1;stroke:none;stroke-width:0.26458332px;stroke-linecap:butt;stroke-linejoin:miter;stroke-opacity:1"
       d="m 48.397501,126.70254 1.054777,1.7 2.616838,3.98282 1.426548,1.63702 2.257005,2.03654 2.116666,1.69499 1.165821,1.0914 1.628343,2.23967 0.604078,1.42316 -1.339453,-1.41387 -2.587955,-1.88516 -2.629297,-1.38079 -1.30638,-0.61185 -1.206754,-0.85548 c -4.974677,-1.595 -4.253704,-2.05087 -4.374301,-2.67505 -12.1903,-11.89809 6.656492,-14.22605 15.74918,-8.70805 -6.838426,-3.26144 -22.760166,-3.73072 -13.608251,8.03889 z"
       id="path1229"
       inkscape:connector-curvature="0"
       sodipodi:nodetypes="cccccccccccccccccc" />
    <path
       style="fill:#141414;fill-opacity:1;stroke:none;stroke-width:0.26458332px;stroke-linecap:butt;stroke-linejoin:miter;stroke-opacity:1"
       d="m 50.531505,142.49375 c -4.088964,-1.03803 -6.168278,0.27991 -8.467859,-0.73705 -0.161813,0.92518 2.596507,3.98698 5.429062,6.31596 -2.068404,1.12972 -2.73253,1.98764 -2.877344,2.74505 1.557019,-0.17308 3.798197,-0.24644 6.447414,1.57924 l -2.165159,-5.74014 c 0.0043,-1.62299 -0.919784,-3.65028 1.633886,-4.16306 z"
       id="path1231"
       inkscape:connector-curvature="0"
       sodipodi:nodetypes="ccccccc" />
    <path
       style="fill:#141414;fill-opacity:1;stroke:none;stroke-width:0.26458332px;stroke-linecap:butt;stroke-linejoin:miter;stroke-opacity:1"
       d="m 53.597949,154.55262 c 0.68443,0.62463 -0.22237,1.51412 -1.635104,1.94815 1.060204,0.74155 2.975093,0.5084 3.976667,0.96616 l -1.099148,-1.83581 -1.110837,-1.13422 z"
       id="path1233"
       inkscape:connector-curvature="0"
       sodipodi:nodetypes="cccccc" />
    <path
       style="fill:#141414;fill-opacity:1;stroke:none;stroke-width:0.26458332px;stroke-linecap:butt;stroke-linejoin:miter;stroke-opacity:1"
       d="m 59.398958,159.97891 c 1.034471,0.88489 -0.558293,1.45396 -1.719792,1.65364 2.503785,0.38964 2.39536,0.77869 4.630208,1.68672 l -0.967383,-1.70326 -1.149283,-1.19062 z"
       id="path1235"
       inkscape:connector-curvature="0"
       sodipodi:nodetypes="cccccc" />
    <path
       style="fill:#141414;fill-opacity:1;stroke:none;stroke-width:0.26458332px;stroke-linecap:butt;stroke-linejoin:miter;stroke-opacity:1"
       d="m 51.208912,152.16436 c -0.521638,-1.40039 -0.27419,-1.29721 1.306581,-0.93126 -4.447011,-1.93781 -3.867573,-10.25086 -0.999899,-7.84783 l -1.021519,-1.14172 -0.730299,0.42628 -0.336303,0.19384 -0.570507,0.98392 -0.157097,1.48001 -0.01654,1.76114 1.547333,3.10317 z"
       id="path1237"
       inkscape:connector-curvature="0"
       sodipodi:nodetypes="ccccccccccc" />
    <path
       style="fill:#141414;fill-opacity:1;stroke:none;stroke-width:0.26458332px;stroke-linecap:butt;stroke-linejoin:miter;stroke-opacity:1"
       d="m 51.610286,147.17142 0.702799,0.19844 1.347722,0.96738 1.916221,1.42398 0.802102,0.42639 0.963547,2.187 1.696611,1.85374 0.624457,0.20424 1.262848,1.62825 1.964431,1.48794 2.326915,0.99976 1.542677,0.55127 0.327795,0.99485 1.064482,2.43536 0.134469,1.44993 -0.58465,0.97053 -0.602191,0.19878 -1.525942,-0.12278 -0.678199,-0.3391 -0.668777,-1.25235 -0.727604,-1.79776 -0.363802,0.23092 -0.534575,-0.0748 -1.599025,-1.85334 -2.446999,-2.97901 -1.645377,-2.48047 -0.901237,-1.91823 -0.29164,-0.8425 -0.5905,-0.82436 -1.238662,-1.52467 -1.743062,-1.75523 z"
       id="path1239"
       inkscape:connector-curvature="0" />
    <path
       style="fill:#141414;fill-opacity:1;stroke:none;stroke-width:0.26458332px;stroke-linecap:butt;stroke-linejoin:miter;stroke-opacity:1"
       d="m 63.60542,155.22674 c 0.222853,0.0794 1.24095,-0.20387 1.717757,0.18221 l 0.876977,0.63728 0.274788,0.40341 c -0.474781,-0.20437 -1.258951,-0.44823 -1.888426,-0.67235 l -0.708541,-0.40022 z"
       id="path1241"
       inkscape:connector-curvature="0"
       sodipodi:nodetypes="ccccccc" />
    <path
       style="fill:#141414;fill-opacity:1;stroke:none;stroke-width:0.26458332px;stroke-linecap:butt;stroke-linejoin:miter;stroke-opacity:1"
       d="m 59.809909,123.70912 c 9.628756,3.20016 13.462039,14.97094 12.815573,22.8482 l 0.864612,1.17225 0.877652,1.01435 1.112671,2.5089 0.226182,-0.84849 0.380023,-3.56637 -0.266961,-4.21407 -1.165821,-4.51445 -1.572329,-3.62518 -1.420706,-2.20999 -1.543481,-1.98782 -3.192201,-2.99926 -2.631374,-1.75373 -0.444744,-0.31055 c -1.382773,-0.63202 -2.743979,-1.18856 -4.039096,-1.51379 z"
       id="path1243"
       inkscape:connector-curvature="0"
       sodipodi:nodetypes="cccccccccccccccc" />
    <path
       style="fill:#141414;fill-opacity:1;stroke:none;stroke-width:0.26458332px;stroke-linecap:butt;stroke-linejoin:miter;stroke-opacity:1"
       d="m 72.297537,147.88571 c -0.08913,1.08507 -0.875726,3.12289 -1.404093,4.10526 l 2.597322,1.14954 0.40341,0.0877 -0.187089,-1.37393 -0.461875,-2.34446 z"
       id="path1245"
       inkscape:connector-curvature="0"
       sodipodi:nodetypes="ccccccc" />
    <path
       style="fill:#141414;fill-opacity:1;stroke:none;stroke-width:0.26458332px;stroke-linecap:butt;stroke-linejoin:miter;stroke-opacity:1"
       d="m 66.760616,159.09981 0.327795,0.99485 c 0.264196,0.10917 0.523273,0.27157 0.840724,-0.17312 l 0.545317,2.77218 1.245309,-0.91206 1.186844,-1.257 1.624015,-2.15571 -1.027671,0.53622 -0.661876,1.3794 -0.554199,-0.43226 -1.753957,-0.49695 -0.391716,-0.16371 -0.854353,-0.0437 -0.566375,-0.16537 z"
       id="path1249"
       inkscape:connector-curvature="0"
       sodipodi:nodetypes="ccccccccccccccc" />
    <path
       style="fill:#141414;fill-opacity:1;stroke:none;stroke-width:0.26458332px;stroke-linecap:butt;stroke-linejoin:miter;stroke-opacity:1"
       d="m 64.24414,165.56409 c -12.045161,5.54341 -26.077072,2.94815 -31.813609,-11.22047 3.294082,7.69933 15.815981,14.99691 28.84287,9.2684 l 2.067806,0.95831 z"
       id="path1251"
       inkscape:connector-curvature="0"
       sodipodi:nodetypes="ccccc" />
    <path
       style="fill:#141414;fill-opacity:1;stroke:none;stroke-width:0.26458332px;stroke-linecap:butt;stroke-linejoin:miter;stroke-opacity:1"
       d="m 35.454166,131.35016 c 0.20473,-2.49895 0.588442,-5.04535 4.382162,-8.4956 -11.711266,5.05461 -18.120073,32.40726 1.819438,42.72217 -12.348922,-8.17485 -14.024231,-24.34226 -6.2016,-34.22657 z"
       id="path1253"
       inkscape:connector-curvature="0"
       sodipodi:nodetypes="cccc" />
    <path
       style="fill:#141414;fill-opacity:1;stroke:none;stroke-width:0.26458332px;stroke-linecap:butt;stroke-linejoin:miter;stroke-opacity:1"
       d="m 37.023188,137.56208 c 1.534306,3.9257 4.400137,7.3905 9.174935,10.19449 -3.131981,2.19885 -4.077514,3.81321 -4.071636,5.17323 2.173888,-1.16205 5.35785,-2.5865 9.546976,0.0913 1.604855,1.44044 1.776342,2.76218 -3.486224,3.63398 l 3.972883,1.2237 3.323359,0.41836 1.718879,0.70158 1.625333,1.44993 -0.234889,0.35708 -4.125719,0.6642 1.910916,0.54559 3.263426,0.63581 c -10.552954,4.15615 -31.023846,-5.02291 -23.239494,-26.1762 z"
       id="path1257"
       inkscape:connector-curvature="0"
       sodipodi:nodetypes="ccccccccccccccc" />
    <path
       style="fill:#141414;fill-opacity:1;stroke:none;stroke-width:0.26458332px;stroke-linecap:butt;stroke-linejoin:miter;stroke-opacity:1"
       d="m 54.92017,129.13675 c -1.948728,0.37346 -5.924784,1.03628 1.540023,7.4596 l 0.87407,0.16536 -0.728247,-2.99658 z"
       id="path1259"
       inkscape:connector-curvature="0"
       sodipodi:nodetypes="ccccc" />
    <path
       style="fill:#141414;fill-opacity:1;stroke:none;stroke-width:0.26458332;stroke-linecap:butt;stroke-linejoin:miter;stroke-miterlimit:4;stroke-dasharray:none;stroke-dashoffset:0;stroke-opacity:1"
       d="m 56.30664,129.03092 c 1.778396,3.42485 4.274149,7.11399 5.291667,10.25851 l 2.827734,2.78049 1.132747,1.00046 1.694987,0.93431 0.825307,0.94474 -0.420164,0.69237 0.305925,0.8847 -0.127662,1.21766 -0.263093,0.49111 0.362484,0.5905 0.695735,0.87698 0.836052,0.81852 0.444336,-1.23362 c 0.297828,-1.4475 0.360815,-2.96546 0.445799,-4.47681 l -0.797883,-1.64951 -0.314193,-1.24024 0.841674,1.43234 -0.411726,-1.43234 -1.231966,-3.36517 c -3.92295,-7.51992 -8.032663,-8.44091 -12.13776,-9.525 z"
       id="path1261"
       inkscape:connector-curvature="0"
       sodipodi:nodetypes="ccccccccccccccccccccc" />
    <path
       style="fill:#141414;fill-opacity:1;stroke:none;stroke-width:0.26458332px;stroke-linecap:butt;stroke-linejoin:miter;stroke-opacity:1"
       d="m 37.023188,137.56208 c 2.137538,2.36845 4.785824,3.93429 8.766762,3.40597 -6.893129,-2.60616 -12.827034,-15.04572 -4.237601,-18.89085 -4.885263,2.44498 -8.230069,8.45014 -4.529161,15.48488 z"
       id="path1263"
       inkscape:connector-curvature="0"
       sodipodi:nodetypes="cccc" />
    <path
       style="fill:#141414;fill-opacity:1;stroke:none;stroke-width:0.26458332px;stroke-linecap:butt;stroke-linejoin:miter;stroke-opacity:1"
       d="m 66.837427,156.96413 0.479414,1.33301 0.444336,0.64311 c -6.311551,-1.98046 -7.22416,-4.2132 -8.418991,-6.02191 1.843843,1.86235 4.238186,3.7032 7.495241,4.04579 z"
       id="path1265"
       inkscape:connector-curvature="0"
       sodipodi:nodetypes="ccccc" />
    <path
       style="fill:#141414;fill-opacity:1;stroke:none;stroke-width:0.26458332px;stroke-linecap:butt;stroke-linejoin:miter;stroke-opacity:1"
       d="m 73.894176,153.22821 c 0.0334,-3.00378 -0.0842,-3.64207 -0.929597,-5.08063 1.181658,1.24531 2.180338,2.94806 2.251501,6.96961 z"
       id="path1267"
       inkscape:connector-curvature="0"
       sodipodi:nodetypes="cccc" />
    <path
       style="fill:#141414;fill-opacity:1;stroke:none;stroke-width:0.26458332px;stroke-linecap:butt;stroke-linejoin:miter;stroke-opacity:1"
       d="m 71.172916,156.5724 c -0.547554,-0.63207 -0.780801,-0.9982 -0.926042,-1.28985 -0.258302,-1.00879 -4.110948,-1.74083 -5.390885,-4.10104 0.738751,1.20619 1.041934,1.84055 4.539358,3.76596 1.471151,0.80662 -2.869379,-0.0748 1.777569,1.62493 z"
       id="path1269"
       inkscape:connector-curvature="0"
       sodipodi:nodetypes="ccccc" />
  </g>
  <g
     inkscape:groupmode="layer"
     id="layer3"
     inkscape:label="Camada 3"
     transform="translate(-25.828955,-118.9675)">
    <path
       style="fill:#f9f9f9;fill-opacity:1;stroke:#000000;stroke-width:0.26458332px;stroke-linecap:butt;stroke-linejoin:miter;stroke-opacity:1"
       d="m 59.29883,147.39083 c -1.980837,-0.34973 -0.26264,0.11523 0.569054,1.06464 0.3202,0.36876 -1.278698,0.66093 1.565687,1.00173 1.271138,-0.0301 1.742904,-0.20038 -0.120833,-1.25861 -0.89196,-0.32011 -1.197076,-0.50158 -2.013908,-0.80776 z"
       id="path1138"
       inkscape:connector-curvature="0"
       sodipodi:nodetypes="ccccc" />
    <path
       style="fill:none;fill-opacity:1;stroke:#000000;stroke-width:0.26458332px;stroke-linecap:butt;stroke-linejoin:miter;stroke-opacity:1"
       d="m 67.452147,145.99272 c 0.136619,-0.34396 0.270995,-0.48951 0.395078,0.27573 0.112078,0.52075 0.07742,1.04149 -0.0099,1.56224 -0.03916,0.23884 -0.37139,0.65221 -0.585624,-0.25106 -0.252532,-0.92435 0.0028,-1.21995 0.200446,-1.58691 z"
       id="path1140"
       inkscape:connector-curvature="0"
       sodipodi:nodetypes="ccccc" />
    <path
       style="fill:none;fill-opacity:1;stroke:#000000;stroke-width:0.26458332px;stroke-linecap:butt;stroke-linejoin:miter;stroke-opacity:1"
       d="m 67.378917,147.95432 c 0.425656,1.01276 1.547295,2.15141 3.327438,3.82618 2.056464,1.36364 2.508927,1.29006 3.012292,1.33157 0.350087,0.1917 0.929647,1.11772 1.593109,2.31222 0.497468,0.97966 0.101975,1.4997 0.294164,2.57789 -0.488768,-0.40316 -0.867879,-0.30343 -2.331692,0.0975 -2.519631,0.78889 -1.906855,1.38948 -2.433155,2.18489 -0.606313,-1.05326 -3.341515,-0.0679 -3.892042,-3.04124 -0.592217,-1.24038 -1.241998,-2.13581 -3.071056,-1.86626"
       id="path1142"
       inkscape:connector-curvature="0"
       sodipodi:nodetypes="ccccccccc" />
    <path
       style="fill:none;fill-opacity:1;stroke:#000000;stroke-width:0.26458332px;stroke-linecap:butt;stroke-linejoin:miter;stroke-opacity:1"
       d="m 66.300151,156.23403 c -1.748309,-0.56945 -3.284014,-0.56636 -5.937671,-3.57389 -6.037627,-7.29154 -8.156958,-6.68684 -9.71279,-7.24375 2.629483,0.90456 5.260124,1.85081 8.012694,7.18648 1.414576,2.7767 2.984585,5.50715 9.578795,6.74229"
       id="path1144"
       inkscape:connector-curvature="0"
       sodipodi:nodetypes="ccccc" />
    <path
       style="fill:none;fill-opacity:1;stroke:#000000;stroke-width:0.26499999;stroke-linecap:butt;stroke-linejoin:miter;stroke-miterlimit:4;stroke-dasharray:none;stroke-opacity:1"
       d="m 73.715694,152.92258 c -0.272677,-3.10134 -0.272677,-3.10134 -1.404615,-5.07592 -2.63715,-4.35627 -2.477876,-3.16339 -3.407575,-7.08116 0.552619,2.28942 1.507652,3.00375 4.586592,6.96407 1.979301,1.83036 2.909287,5.84922 2.088714,8.21894"
       id="path1146"
       inkscape:connector-curvature="0"
       sodipodi:nodetypes="ccccc" />
    <path
       style="fill:none;fill-opacity:1;stroke:#000000;stroke-width:0.26458332px;stroke-linecap:butt;stroke-linejoin:miter;stroke-opacity:1"
       d="m 48.155571,126.34308 c 1.390328,3.09709 0.933865,8.56058 5.487964,10.99271 4.86241,2.20321 6.945639,4.00324 7.724166,5.51779 -0.524452,-1.02251 -0.590965,-3.32423 -5.978117,-6.98528 -3.574576,-3.05061 -4.734629,-5.67512 -7.234013,-9.52522 z"
       id="path1185"
       inkscape:connector-curvature="0"
       sodipodi:nodetypes="ccccc" />
    <path
       style="fill:none;fill-opacity:1;stroke:#000000;stroke-width:0.26458332px;stroke-linecap:butt;stroke-linejoin:miter;stroke-opacity:1"
       d="m 67.514472,145.85583 c 0.250415,-0.46639 0.393799,-0.69235 0.564611,-0.9064 -0.36596,-0.52015 -0.837315,-1.07415 -2.559384,-1.93223 -1.346245,-0.7538 -1.712672,-1.98833 -2.816031,-2.86025 -2.59949,-2.2241 -5.006624,-3.31885 -6.243475,-3.5606"
       id="path1187"
       inkscape:connector-curvature="0"
       sodipodi:nodetypes="ccccc" />
    <path
       style="fill:none;fill-opacity:1;stroke:#000000;stroke-width:0.26458332px;stroke-linecap:butt;stroke-linejoin:miter;stroke-opacity:1"
       d="m 51.620905,143.30702 c -8.197722,-7.85086 -10.843607,-13.20518 -12.830302,-16.47261 3.374837,4.00825 7.065337,7.47106 13.69619,10.95415 0.66646,1.17253 0.588945,0.60749 2.543572,5.21514 -0.685556,0.59729 -1.920704,1.12997 -3.40946,0.30332 z"
       id="path1189"
       inkscape:connector-curvature="0"
       sodipodi:nodetypes="ccccc" />
    <path
       style="fill:none;fill-opacity:1;stroke:#000000;stroke-width:0.26458332px;stroke-linecap:butt;stroke-linejoin:miter;stroke-opacity:1"
       d="m 57.334263,136.76171 c -1.097665,-5.6253 -3.410645,-8.19802 -3.427444,-13.54874 1.080134,5.32687 6.981409,12.55256 7.691488,16.07646"
       id="path1191"
       inkscape:connector-curvature="0"
       sodipodi:nodetypes="ccc" />
    <path
       style="fill:none;fill-opacity:1;stroke:#000000;stroke-width:0.26458332px;stroke-linecap:butt;stroke-linejoin:miter;stroke-opacity:1"
       d="m 50.531505,142.49375 c -1.824723,0.10759 -2.000736,1.8639 -1.633886,4.16306 1.1773,3.5938 1.539161,4.01607 2.287938,5.78107 0.251615,0.43065 0.576494,0.71901 1.637321,1.396 0.697823,0.42124 1.510782,1.11524 2.21011,2.14498 1.342142,2.23836 2.317803,3.13271 3.716195,3.69471 1.561266,0.43064 2.637831,1.84864 3.573592,3.55346 0.270799,0.43315 2.098934,3.33027 4.035669,3.39481 0.885413,0.0164 1.964996,-0.022 2.748044,-1.17446 0.648844,-1.64909 -0.583233,-2.60349 -0.994375,-3.19438 -1.017797,-1.8345 -1.055108,-2.29716 -1.351497,-3.15319"
       id="path1193"
       inkscape:connector-curvature="0"
       sodipodi:nodetypes="ccccccccccc" />
    <path
       style="fill:none;fill-opacity:1;stroke:#000000;stroke-width:0.26458332px;stroke-linecap:butt;stroke-linejoin:miter;stroke-opacity:1"
       d="m 59.62419,154.50623 c -1.541254,-0.70056 -2.274665,-1.85363 -3.245058,-4.31862 -2.352944,-1.19089 -3.654354,-2.9869 -4.996565,-3.09241 2.884734,1.98227 2.614477,2.81719 3.878103,3.97639 0.683849,0.62021 0.637533,1.75611 1.98178,3.91475 0.688716,1.41874 4.080766,5.30366 5.020442,6.44007 0.375185,0.42973 0.768285,0.68629 1.237107,0.21086 l 0.921316,2.29149 c 0.401193,1.17136 1.384296,1.01412 2.187668,1.26723 0.673959,0.0137 1.196684,-0.19355 1.473978,-0.75933 0.349408,-0.65718 0.242187,-1.52288 -0.116021,-2.44541"
       id="path1195"
       inkscape:connector-curvature="0"
       sodipodi:nodetypes="ccccccccccc" />
    <path
       style="fill:none;fill-opacity:1;stroke:#000000;stroke-width:0.26458332px;stroke-linecap:butt;stroke-linejoin:miter;stroke-opacity:1"
       d="m 50.531505,142.49375 c -2.364353,-1.77966 -4.211659,-1.41121 -6.935874,-1.49579 -3.594412,-0.0124 -5.685375,-2.42941 -6.572443,-3.43588 1.098593,3.94421 4.396119,7.27572 9.174935,10.19449 -2.178322,1.25147 -4.302239,3.61558 -4.071636,5.17323 2.013693,-1.54992 7.030532,-2.20666 9.546976,0.0913"
       id="path1197"
       inkscape:connector-curvature="0"
       sodipodi:nodetypes="cccccc" />
    <path
       style="fill:none;fill-opacity:1;stroke:#000000;stroke-width:0.26458332px;stroke-linecap:butt;stroke-linejoin:miter;stroke-opacity:1"
       d="m 47.8947,136.3376 c 1.932756,1.78952 3.892391,3.55813 6.375463,4.91963 0.522146,0.33592 1.589297,1.74936 2.011673,3.00378 0.214206,0.53483 0.394704,1.295 0.885046,1.70588"
       id="path1199"
       inkscape:connector-curvature="0"
       sodipodi:nodetypes="cccc" />
    <path
       style="fill:none;fill-opacity:1;stroke:#000000;stroke-width:0.26458332px;stroke-linecap:butt;stroke-linejoin:miter;stroke-opacity:1"
       d="m 58.882193,137.5162 c -0.373343,-1.57428 -1.010265,-3.36233 -1.723925,-5.15318"
       id="path1201"
       inkscape:connector-curvature="0"
       sodipodi:nodetypes="cc" />
    <path
       style="fill:none;fill-opacity:1;stroke:#000000;stroke-width:0.26458332px;stroke-linecap:butt;stroke-linejoin:miter;stroke-opacity:1"
       d="m 51.830264,153.15689 c 2.734914,2.52902 -1.752387,3.27129 -3.643025,3.49819 0.867861,0.47248 4.212784,1.39882 5.682948,1.3884 2.504943,0.17374 2.915706,0.56291 4.792247,2.24944 0.821958,0.72689 -2.664028,0.97226 -4.195349,1.17701 1.4256,0.61211 3.292826,0.61497 5.174342,1.1814 1.899816,0.93988 2.308447,1.64701 3.576245,1.89015"
       id="path1203"
       inkscape:connector-curvature="0"
       sodipodi:nodetypes="ccccccc" />
    <circle
       style="fill:none;fill-opacity:1;stroke:#000000;stroke-width:0.465;stroke-miterlimit:4;stroke-dasharray:none;stroke-opacity:1"
       id="path1205"
       cx="53.379684"
       cy="146.51823"
       r="27.31823" />
    <path
       style="fill:none;fill-opacity:1;stroke:#000000;stroke-width:0.26458332px;stroke-linecap:butt;stroke-linejoin:miter;stroke-opacity:1"
       d="m 42.020072,121.69133 c -7.015592,3.42392 -7.919671,10.94943 -4.996884,15.87075"
       id="path1207"
       inkscape:connector-curvature="0"
       sodipodi:nodetypes="cc" />
    <path
       style="fill:none;fill-opacity:1;stroke:#000000;stroke-width:0.26458332px;stroke-linecap:butt;stroke-linejoin:miter;stroke-opacity:1"
       d="m 50.204687,133.28906 c -10.078744,-11.50957 6.143356,-13.31678 15.463435,-6.91393 8.953404,5.89113 11.771166,17.52211 9.812297,24.87769"
       id="path1209"
       inkscape:connector-curvature="0"
       sodipodi:nodetypes="ccc" />
    <path
       style="fill:none;fill-opacity:1;stroke:#000000;stroke-width:0.26458332px;stroke-linecap:butt;stroke-linejoin:miter;stroke-opacity:1"
       d="M 64.24414,165.56409 C 38.350413,177.44377 21.906982,148.57815 35.454166,131.35016"
       id="path1211"
       inkscape:connector-curvature="0"
       sodipodi:nodetypes="cc" />
    <path
       style="fill:none;fill-opacity:1;stroke:#000000;stroke-width:0.26458332px;stroke-linecap:butt;stroke-linejoin:miter;stroke-opacity:1"
       d="m 68.474452,162.69372 c 1.67056,-1.19867 2.882617,-2.33635 4.056168,-4.32477"
       id="path1213"
       inkscape:connector-curvature="0"
       sodipodi:nodetypes="cc" />
    <path
       style="fill:none;fill-opacity:1;stroke:#000000;stroke-width:0.26458332px;stroke-linecap:butt;stroke-linejoin:miter;stroke-opacity:1"
       d="m 56.460193,136.59635 c -4.456309,-3.1833 -6.154324,-7.32922 -1.540022,-7.4596"
       id="path1215"
       inkscape:connector-curvature="0"
       sodipodi:nodetypes="cc" />
    <path
       style="fill:none;fill-opacity:1;stroke:#000000;stroke-width:0.26458332px;stroke-linecap:butt;stroke-linejoin:miter;stroke-opacity:1"
       d="m 56.30664,129.03092 c 6.740181,1.26158 11.527355,5.46001 13.781452,14.32251"
       id="path1217"
       inkscape:connector-curvature="0"
       sodipodi:nodetypes="cc" />
    <path
       style="fill:none;fill-opacity:1;stroke:#000000;stroke-width:0.26458332px;stroke-linecap:butt;stroke-linejoin:miter;stroke-opacity:1"
       d="m 70.298566,144.73321 c 0.209786,2.09303 -0.13679,4.03957 -0.830206,5.78806"
       id="path1219"
       inkscape:connector-curvature="0"
       sodipodi:nodetypes="cc" />
    <path
       style="fill:none;fill-opacity:1;stroke:#000000;stroke-width:0.26458332px;stroke-linecap:butt;stroke-linejoin:miter;stroke-opacity:1"
       d="m 36.401932,136.47513 c -6.971045,16.19572 7.253889,31.1028 23.239495,26.1762"
       id="path1221"
       inkscape:connector-curvature="0"
       sodipodi:nodetypes="cc" />
    <path
       style="fill:none;fill-opacity:1;stroke:#000000;stroke-width:0.26458332px;stroke-linecap:butt;stroke-linejoin:miter;stroke-opacity:1"
       d="m 68.474452,162.69372 -0.545317,-2.77218 c -0.196934,0.43565 -0.504252,0.43515 -0.840724,0.17312"
       id="path1247"
       inkscape:connector-curvature="0"
       sodipodi:nodetypes="ccc" />
  </g>
</svg>
