<?xml version="1.0" encoding="UTF-8" standalone="no"?>
<!-- Created with Inkscape (http://www.inkscape.org/) -->

<svg
   xmlns:dc="http://purl.org/dc/elements/1.1/"
   xmlns:cc="http://creativecommons.org/ns#"
   xmlns:rdf="http://www.w3.org/1999/02/22-rdf-syntax-ns#"
   xmlns:svg="http://www.w3.org/2000/svg"
   xmlns="http://www.w3.org/2000/svg"
   xmlns:sodipodi="http://sodipodi.sourceforge.net/DTD/sodipodi-0.dtd"
   xmlns:inkscape="http://www.inkscape.org/namespaces/inkscape"
   width="39.114738mm"
   height="43.569866mm"
   viewBox="0 0 39.114739 43.569866"
   version="1.1"
   id="svg8"
   inkscape:version="0.92.3 (2405546, 2018-03-11)"
   sodipodi:docname="drg0.svg">
  <defs
     id="defs2" />
  <sodipodi:namedview
     id="base"
     pagecolor="#ffffff"
     bordercolor="#666666"
     borderopacity="1.0"
     inkscape:pageopacity="0.0"
     inkscape:pageshadow="2"
     inkscape:zoom="2"
     inkscape:cx="66.492594"
     inkscape:cy="80.383146"
     inkscape:document-units="mm"
     inkscape:current-layer="layer2"
     showgrid="false"
     inkscape:window-width="1366"
     inkscape:window-height="705"
     inkscape:window-x="-8"
     inkscape:window-y="-8"
     inkscape:window-maximized="1" />
  <metadata
     id="metadata5">
    <rdf:RDF>
      <cc:Work
         rdf:about="">
        <dc:format>image/svg+xml</dc:format>
        <dc:type
           rdf:resource="http://purl.org/dc/dcmitype/StillImage" />
        <dc:title></dc:title>
      </cc:Work>
    </rdf:RDF>
  </metadata>
  <g
     inkscape:groupmode="layer"
     id="layer2"
     inkscape:label="Camada 2"
     transform="translate(-36.895747,-123.18668)">
    <path
       style="fill:#ffffff;fill-opacity:1;stroke:none;stroke-width:0.26458332px;stroke-linecap:butt;stroke-linejoin:miter;stroke-opacity:1"
       d="m 53.907243,123.21278 c 0.0168,5.35072 2.329516,7.92375 3.427181,13.54905 l 0.0041,0.0915 c -0.32995,-0.1173 -0.632552,-0.20886 -0.877982,-0.25683 l -0.07131,-0.0191 c -0.311972,-0.23071 -0.642395,-0.46637 -0.999423,-0.709 -3.574576,-3.05061 -4.7348,-5.67543 -7.234184,-9.52551 1.226488,2.73211 1.018108,7.30472 4.077787,10.01437 l -1.566829,0.42943 c -5.507236,-3.15035 -8.824466,-6.32838 -11.875761,-9.95236 1.728516,2.84281 3.960128,7.26715 9.908957,13.53922 0.312947,0.42999 0.448177,0.83092 -0.694531,0.8847 -1.354135,-0.33056 -2.71167,-0.20773 -4.409551,-0.26044 -3.594411,-0.0124 -5.685141,-2.4295 -6.572209,-3.43597 1.098594,3.94421 4.395818,7.27596 9.174634,10.19473 -2.178322,1.25146 -4.302189,3.61567 -4.071585,5.17332 2.013693,-1.54992 7.030777,-2.20701 9.547221,0.0909 0.07416,0.0642 0.204929,0.17956 0.420646,0.40049 2.150059,2.31653 -2.084361,3.01515 -3.907255,3.23392 0.867861,0.47248 4.21321,1.39841 5.683374,1.38803 2.504943,0.1737 2.915414,0.56294 4.791955,2.24947 0.821959,0.72689 -2.663772,0.97244 -4.195093,1.17719 1.4256,0.61211 3.292846,0.61489 5.174362,1.18132 1.899815,0.93988 2.308211,1.64719 3.576009,1.89033 l 0.05736,0.0134 c 0.771616,0.94276 1.906454,2.02732 3.083532,2.06654 0.885413,0.0164 1.965106,-0.0216 2.748153,-1.17409 0.505947,-1.2859 -0.129569,-2.14588 -0.629936,-2.74401 l -0.0021,-0.01 -0.545703,-2.77193 c -0.196025,0.43364 -0.501476,0.43463 -0.836126,0.17622 -0.121817,-0.34474 -0.209592,-0.64404 -0.332277,-0.99839 l -0.101804,-0.10387 c 0.493607,0.12664 1.018241,0.24368 1.582333,0.34934 l -0.12559,-0.20154 c 1.012605,0.63247 2.327185,0.44923 2.725415,1.14101 0.526301,-0.79541 -0.08619,-1.39599 2.433444,-2.18488 1.463813,-0.40093 1.842873,-0.50081 2.331641,-0.0977 -0.147275,-0.82619 0.04785,-1.32579 -0.07545,-1.9544 l 0.015,0.0248 c 0.820574,-2.36972 -0.07639,-6.51229 -2.055688,-8.34265 -3.07894,-3.96032 -4.033665,-4.67501 -4.586285,-6.96443 0.929699,3.91777 0.770396,2.72495 3.407545,7.08122 1.131938,1.97458 1.134989,2.16397 1.407666,5.26531 -0.503365,-0.0415 -0.955755,0.0325 -3.012221,-1.33118 -1.756291,-1.65233 -2.868427,-2.78219 -3.306773,-3.78478 l 0.0036,-0.01 c 0.192902,0.31693 0.403378,0.0317 0.434083,-0.15555 0.08732,-0.52075 0.121896,-1.04143 0.0098,-1.56218 -0.09147,-0.56413 -0.188402,-0.63134 -0.287838,-0.49092 0.218879,-0.40215 0.361413,-0.6293 0.519864,-0.82786 -0.365961,-0.52015 -0.837465,-1.0741 -2.559534,-1.93218 -1.346245,-0.7538 -1.713005,-1.98837 -2.816365,-2.86029 -0.375718,-0.32147 -0.746304,-0.61682 -1.111038,-0.89194 -0.731475,-3.53246 -6.607586,-10.73722 -7.685319,-16.05225 z m 13.636895,22.59139 c -0.0031,0.005 -0.0062,0.0138 -0.0093,0.0191 l -0.0011,-0.001 c 0.0041,-0.008 0.0063,-0.0106 0.01035,-0.0181 z"
       id="path1140-2-2"
       inkscape:connector-curvature="0" />
  </g>
  <g
     inkscape:groupmode="layer"
     id="layer3"
     inkscape:label="Camada 3"
     sodipodi:insensitive="true"
     transform="translate(-36.895747,-123.18668)">
    <g
       id="g5107">
      <path
         sodipodi:nodetypes="cccccccccccccc"
         inkscape:connector-curvature="0"
         id="path1223"
         d="m 54.270163,141.25723 c 0.695078,0.81481 1.43863,1.47209 1.967521,2.82701 0.315272,0.60761 0.38844,1.36929 1.007746,1.78343 l 3.371299,1.69525 0.882043,0.33388 c 0.673073,0.16595 1.321565,0.47939 2.0343,0.40737 0.402972,-0.0841 0.266675,-0.37799 0.305924,-0.60358 0.0386,0.29753 0.253626,0.35779 0.04349,0.84878 -0.314616,0.37915 -0.305443,0.65423 -1.429951,1.2937 -0.678324,0.2559 -1.566601,0.0628 -2.198291,-0.0819 -2.058772,-0.73288 -1.847419,-2.35447 -4.691745,-3.69775 -3.047362,-1.84472 -3.168058,-1.77448 -4.046904,-2.67815 1.092829,0.30045 1.942161,0.88243 3.514769,-0.38162 z"
         style="fill:#000000;fill-opacity:1;stroke:none;stroke-width:0.26458332px;stroke-linecap:butt;stroke-linejoin:miter;stroke-opacity:1" />
      <path
         sodipodi:nodetypes="cccc"
         inkscape:connector-curvature="0"
         id="path1225"
         d="m 54.270163,141.25723 c -3.568576,-2.31389 -5.92849,-4.20615 -7.604278,-5.85977 3.551073,2.00511 5.636142,2.91072 5.820907,2.3911 l 1.783371,3.46867"
         style="fill:#000000;fill-opacity:1;stroke:none;stroke-width:0.26458332px;stroke-linecap:butt;stroke-linejoin:miter;stroke-opacity:1" />
      <path
         sodipodi:nodetypes="cccc"
         inkscape:connector-curvature="0"
         id="path1227"
         d="m 59.008284,137.53066 c -0.911338,-2.70734 -1.705634,-6.17775 -3.49872,-8.57719 1.689339,4.83514 2.174074,7.38765 2.17787,7.94881 z"
         style="fill:#000000;fill-opacity:1;stroke:none;stroke-width:0.26458332px;stroke-linecap:butt;stroke-linejoin:miter;stroke-opacity:1" />
      <path
         sodipodi:nodetypes="ccccccc"
         inkscape:connector-curvature="0"
         id="path1231"
         d="m 50.531505,142.49375 c -4.088964,-1.03803 -6.168278,0.27991 -8.467859,-0.73705 -0.161813,0.92518 2.596507,3.98698 5.429062,6.31596 -2.068404,1.12972 -2.73253,1.98764 -2.877344,2.74505 1.557019,-0.17308 3.798197,-0.24644 6.447414,1.57924 l -2.165159,-5.74014 c 0.0043,-1.62299 -0.919784,-3.65028 1.633886,-4.16306 z"
         style="fill:#000000;fill-opacity:1;stroke:none;stroke-width:0.26458332px;stroke-linecap:butt;stroke-linejoin:miter;stroke-opacity:1" />
      <path
         sodipodi:nodetypes="cccccc"
         inkscape:connector-curvature="0"
         id="path1233"
         d="m 53.597949,154.55262 c 0.68443,0.62463 -0.22237,1.51412 -1.635104,1.94815 1.060204,0.74155 2.975093,0.5084 3.976667,0.96616 l -1.099148,-1.83581 -1.110837,-1.13422 z"
         style="fill:#000000;fill-opacity:1;stroke:none;stroke-width:0.26458332px;stroke-linecap:butt;stroke-linejoin:miter;stroke-opacity:1" />
      <path
         sodipodi:nodetypes="cccccc"
         inkscape:connector-curvature="0"
         id="path1235"
         d="m 59.398958,159.97891 c 1.034471,0.88489 -0.558293,1.45396 -1.719792,1.65364 2.503785,0.38964 2.39536,0.77869 4.630208,1.68672 l -0.967383,-1.70326 -1.149283,-1.19062 z"
         style="fill:#000000;fill-opacity:1;stroke:none;stroke-width:0.26458332px;stroke-linecap:butt;stroke-linejoin:miter;stroke-opacity:1" />
      <path
         sodipodi:nodetypes="ccccccccccc"
         inkscape:connector-curvature="0"
         id="path1237"
         d="m 51.208912,152.16436 c -0.521638,-1.40039 -0.27419,-1.29721 1.306581,-0.93126 -4.447011,-1.93781 -3.867573,-10.25086 -0.999899,-7.84783 l -1.021519,-1.14172 -0.730299,0.42628 -0.336303,0.19384 -0.570507,0.98392 -0.157097,1.48001 -0.01654,1.76114 1.547333,3.10317 z"
         style="fill:#000000;fill-opacity:1;stroke:none;stroke-width:0.26458332px;stroke-linecap:butt;stroke-linejoin:miter;stroke-opacity:1" />
      <path
         inkscape:connector-curvature="0"
         id="path1239"
         d="m 51.610286,147.17142 0.702799,0.19844 1.347722,0.96738 1.916221,1.42398 0.802102,0.42639 0.963547,2.187 1.696611,1.85374 0.624457,0.20424 1.262848,1.62825 1.964431,1.48794 2.326915,0.99976 1.542677,0.55127 0.327795,0.99485 1.064482,2.43536 0.134469,1.44993 -0.58465,0.97053 -0.602191,0.19878 -1.525942,-0.12278 -0.678199,-0.3391 -0.668777,-1.25235 -0.727604,-1.79776 -0.363802,0.23092 -0.534575,-0.0748 -1.599025,-1.85334 -2.446999,-2.97901 -1.645377,-2.48047 -0.901237,-1.91823 -0.29164,-0.8425 -0.5905,-0.82436 -1.238662,-1.52467 -1.743062,-1.75523 z"
         style="fill:#000000;fill-opacity:1;stroke:none;stroke-width:0.26458332px;stroke-linecap:butt;stroke-linejoin:miter;stroke-opacity:1" />
      <path
         sodipodi:nodetypes="ccccccc"
         inkscape:connector-curvature="0"
         id="path1241"
         d="m 63.60542,155.22674 c 0.222853,0.0794 1.24095,-0.20387 1.717757,0.18221 l 0.876977,0.63728 0.274788,0.40341 c -0.474781,-0.20437 -1.258951,-0.44823 -1.888426,-0.67235 l -0.708541,-0.40022 z"
         style="fill:#000000;fill-opacity:1;stroke:none;stroke-width:0.26458332px;stroke-linecap:butt;stroke-linejoin:miter;stroke-opacity:1" />
      <path
         sodipodi:nodetypes="ccccc"
         inkscape:connector-curvature="0"
         id="path1265"
         d="m 66.837427,156.96413 0.479414,1.33301 0.444336,0.64311 c -6.311551,-1.98046 -7.22416,-4.2132 -8.418991,-6.02191 1.843843,1.86235 4.238186,3.7032 7.495241,4.04579 z"
         style="fill:#000000;fill-opacity:1;stroke:none;stroke-width:0.26458332px;stroke-linecap:butt;stroke-linejoin:miter;stroke-opacity:1" />
      <path
         sodipodi:nodetypes="cccc"
         inkscape:connector-curvature="0"
         id="path1267"
         d="m 73.894176,153.22821 c 0.0334,-3.00378 -0.0842,-3.64207 -0.929597,-5.08063 1.181658,1.24531 2.180338,2.94806 2.251501,6.96961 z"
         style="fill:#000000;fill-opacity:1;stroke:none;stroke-width:0.26458332px;stroke-linecap:butt;stroke-linejoin:miter;stroke-opacity:1" />
      <path
         sodipodi:nodetypes="ccccc"
         inkscape:connector-curvature="0"
         id="path1269"
         d="m 71.172916,156.5724 c -0.547554,-0.63207 -0.780801,-0.9982 -0.926042,-1.28985 -0.258302,-1.00879 -4.110948,-1.74083 -5.390885,-4.10104 0.738751,1.20619 1.041934,1.84055 4.539358,3.76596 1.471151,0.80662 -2.869379,-0.0748 1.777569,1.62493 z"
         style="fill:#000000;fill-opacity:1;stroke:none;stroke-width:0.26458332px;stroke-linecap:butt;stroke-linejoin:miter;stroke-opacity:1" />
    </g>
  </g>
  <g
     inkscape:groupmode="layer"
     id="layer4"
     inkscape:label="Camada 4"
     sodipodi:insensitive="true"
     transform="translate(-36.895747,-123.18668)">
    <g
       id="g5063">
      <path
         sodipodi:nodetypes="ccccc"
         inkscape:connector-curvature="0"
         id="path1138"
         d="m 59.29883,147.39083 c -1.980837,-0.34973 -0.26264,0.11523 0.569054,1.06464 0.3202,0.36876 -1.278698,0.66093 1.565687,1.00173 1.271138,-0.0301 1.742904,-0.20038 -0.120833,-1.25861 -0.89196,-0.32011 -1.197076,-0.50158 -2.013908,-0.80776 z"
         style="fill:#ffffff;fill-opacity:1;stroke:#000000;stroke-width:0.26458332px;stroke-linecap:butt;stroke-linejoin:miter;stroke-opacity:1" />
      <path
         sodipodi:nodetypes="ccccc"
         inkscape:connector-curvature="0"
         id="path1140"
         d="m 67.452147,145.99272 c 0.136619,-0.34396 0.270995,-0.48951 0.395078,0.27573 0.112078,0.52075 0.07742,1.04149 -0.0099,1.56224 -0.03916,0.23884 -0.37139,0.65221 -0.585624,-0.25106 -0.252532,-0.92435 0.0028,-1.21995 0.200446,-1.58691 z"
         style="fill:none;stroke:#000000;stroke-width:0.26458332px;stroke-linecap:butt;stroke-linejoin:miter;stroke-opacity:1" />
      <path
         sodipodi:nodetypes="ccccccccc"
         inkscape:connector-curvature="0"
         id="path1142"
         d="m 67.378917,147.95432 c 0.425656,1.01276 1.547295,2.15141 3.327438,3.82618 2.056464,1.36364 2.508927,1.29006 3.012292,1.33157 0.350087,0.1917 0.929647,1.11772 1.593109,2.31222 0.497468,0.97966 0.101975,1.4997 0.294164,2.57789 -0.488768,-0.40316 -0.867879,-0.30343 -2.331692,0.0975 -2.519631,0.78889 -1.906855,1.38948 -2.433155,2.18489 -0.606313,-1.05326 -3.341515,-0.0679 -3.892042,-3.04124 -0.592217,-1.24038 -1.241998,-2.13581 -3.071056,-1.86626"
         style="fill:none;stroke:#000000;stroke-width:0.26458332px;stroke-linecap:butt;stroke-linejoin:miter;stroke-opacity:1" />
      <path
         sodipodi:nodetypes="ccccc"
         inkscape:connector-curvature="0"
         id="path1144"
         d="m 66.300151,156.23403 c -1.748309,-0.56945 -3.284014,-0.56636 -5.937671,-3.57389 -6.037627,-7.29154 -8.156958,-6.68684 -9.71279,-7.24375 2.629483,0.90456 5.260124,1.85081 8.012694,7.18648 1.414576,2.7767 2.984585,5.50715 9.578795,6.74229"
         style="fill:none;stroke:#000000;stroke-width:0.26458332px;stroke-linecap:butt;stroke-linejoin:miter;stroke-opacity:1" />
      <path
         sodipodi:nodetypes="ccccc"
         inkscape:connector-curvature="0"
         id="path1146"
         d="m 73.715694,152.92258 c -0.272677,-3.10134 -0.272677,-3.10134 -1.404615,-5.07592 -2.63715,-4.35627 -2.477876,-3.16339 -3.407575,-7.08116 0.552619,2.28942 1.507652,3.00375 4.586592,6.96407 1.979301,1.83036 2.909287,5.84922 2.088714,8.21894"
         style="fill:none;stroke:#000000;stroke-width:0.26499999;stroke-linecap:butt;stroke-linejoin:miter;stroke-miterlimit:4;stroke-dasharray:none;stroke-opacity:1" />
      <path
         sodipodi:nodetypes="ccccc"
         inkscape:connector-curvature="0"
         id="path1185"
         d="m 48.155571,126.34308 c 1.390328,3.09709 0.933865,8.56058 5.487964,10.99271 4.86241,2.20321 6.945639,4.00324 7.724166,5.51779 -0.524452,-1.02251 -0.590965,-3.32423 -5.978117,-6.98528 -3.574576,-3.05061 -4.734629,-5.67512 -7.234013,-9.52522 z"
         style="fill:none;stroke:#000000;stroke-width:0.26458332px;stroke-linecap:butt;stroke-linejoin:miter;stroke-opacity:1" />
      <path
         sodipodi:nodetypes="ccccc"
         inkscape:connector-curvature="0"
         id="path1187"
         d="m 67.514472,145.85583 c 0.250415,-0.46639 0.393799,-0.69235 0.564611,-0.9064 -0.36596,-0.52015 -0.837315,-1.07415 -2.559384,-1.93223 -1.346245,-0.7538 -1.712672,-1.98833 -2.816031,-2.86025 -2.59949,-2.2241 -5.006624,-3.31885 -6.243475,-3.5606"
         style="fill:none;stroke:#000000;stroke-width:0.26458332px;stroke-linecap:butt;stroke-linejoin:miter;stroke-opacity:1" />
      <path
         sodipodi:nodetypes="ccccc"
         inkscape:connector-curvature="0"
         id="path1189"
         d="m 51.620905,143.30702 c -8.197722,-7.85086 -10.843607,-13.20518 -12.830302,-16.47261 3.374837,4.00825 7.065337,7.47106 13.69619,10.95415 0.66646,1.17253 0.588945,0.60749 2.543572,5.21514 -0.685556,0.59729 -1.920704,1.12997 -3.40946,0.30332 z"
         style="fill:none;stroke:#000000;stroke-width:0.26458332px;stroke-linecap:butt;stroke-linejoin:miter;stroke-opacity:1" />
      <path
         sodipodi:nodetypes="ccc"
         inkscape:connector-curvature="0"
         id="path1191"
         d="m 57.334263,136.76171 c -1.097665,-5.6253 -3.410645,-8.19802 -3.427444,-13.54874 1.080134,5.32687 6.981409,12.55256 7.691488,16.07646"
         style="fill:none;stroke:#000000;stroke-width:0.26458332px;stroke-linecap:butt;stroke-linejoin:miter;stroke-opacity:1" />
      <path
         sodipodi:nodetypes="ccccccccccc"
         inkscape:connector-curvature="0"
         id="path1193"
         d="m 50.531505,142.49375 c -1.824723,0.10759 -2.000736,1.8639 -1.633886,4.16306 1.1773,3.5938 1.539161,4.01607 2.287938,5.78107 0.251615,0.43065 0.576494,0.71901 1.637321,1.396 0.697823,0.42124 1.510782,1.11524 2.21011,2.14498 1.342142,2.23836 2.317803,3.13271 3.716195,3.69471 1.561266,0.43064 2.637831,1.84864 3.573592,3.55346 0.270799,0.43315 2.098934,3.33027 4.035669,3.39481 0.885413,0.0164 1.964996,-0.022 2.748044,-1.17446 0.648844,-1.64909 -0.583233,-2.60349 -0.994375,-3.19438 -1.017797,-1.8345 -1.055108,-2.29716 -1.351497,-3.15319"
         style="fill:none;stroke:#000000;stroke-width:0.26458332px;stroke-linecap:butt;stroke-linejoin:miter;stroke-opacity:1" />
      <path
         sodipodi:nodetypes="ccccccccccc"
         inkscape:connector-curvature="0"
         id="path1195"
         d="m 59.62419,154.50623 c -1.541254,-0.70056 -2.274665,-1.85363 -3.245058,-4.31862 -2.352944,-1.19089 -3.654354,-2.9869 -4.996565,-3.09241 2.884734,1.98227 2.614477,2.81719 3.878103,3.97639 0.683849,0.62021 0.637533,1.75611 1.98178,3.91475 0.688716,1.41874 4.080766,5.30366 5.020442,6.44007 0.375185,0.42973 0.768285,0.68629 1.237107,0.21086 l 0.921316,2.29149 c 0.401193,1.17136 1.384296,1.01412 2.187668,1.26723 0.673959,0.0137 1.196684,-0.19355 1.473978,-0.75933 0.349408,-0.65718 0.242187,-1.52288 -0.116021,-2.44541"
         style="fill:none;stroke:#000000;stroke-width:0.26458332px;stroke-linecap:butt;stroke-linejoin:miter;stroke-opacity:1" />
      <path
         sodipodi:nodetypes="cccccc"
         inkscape:connector-curvature="0"
         id="path1197"
         d="m 50.531505,142.49375 c -2.364353,-1.77966 -4.211659,-1.41121 -6.935874,-1.49579 -3.594412,-0.0124 -5.685375,-2.42941 -6.572443,-3.43588 1.098593,3.94421 4.396119,7.27572 9.174935,10.19449 -2.178322,1.25147 -4.302239,3.61558 -4.071636,5.17323 2.013693,-1.54992 7.030532,-2.20666 9.546976,0.0913"
         style="fill:none;stroke:#000000;stroke-width:0.26458332px;stroke-linecap:butt;stroke-linejoin:miter;stroke-opacity:1" />
      <path
         sodipodi:nodetypes="cccc"
         inkscape:connector-curvature="0"
         id="path1199"
         d="m 47.8947,136.3376 c 1.932756,1.78952 3.892391,3.55813 6.375463,4.91963 0.522146,0.33592 1.589297,1.74936 2.011673,3.00378 0.214206,0.53483 0.394704,1.295 0.885046,1.70588"
         style="fill:none;stroke:#000000;stroke-width:0.26458332px;stroke-linecap:butt;stroke-linejoin:miter;stroke-opacity:1" />
      <path
         sodipodi:nodetypes="cc"
         inkscape:connector-curvature="0"
         id="path1201"
         d="m 58.882193,137.5162 c -0.373343,-1.57428 -1.010265,-3.36233 -1.723925,-5.15318"
         style="fill:none;stroke:#000000;stroke-width:0.26458332px;stroke-linecap:butt;stroke-linejoin:miter;stroke-opacity:1" />
      <path
         sodipodi:nodetypes="ccccccc"
         inkscape:connector-curvature="0"
         id="path1203"
         d="m 51.830264,153.15689 c 2.734914,2.52902 -1.752387,3.27129 -3.643025,3.49819 0.867861,0.47248 4.212784,1.39882 5.682948,1.3884 2.504943,0.17374 2.915706,0.56291 4.792247,2.24944 0.821958,0.72689 -2.664028,0.97226 -4.195349,1.17701 1.4256,0.61211 3.292826,0.61497 5.174342,1.1814 1.899816,0.93988 2.308447,1.64701 3.576245,1.89015"
         style="fill:none;stroke:#000000;stroke-width:0.26458332px;stroke-linecap:butt;stroke-linejoin:miter;stroke-opacity:1" />
      <path
         sodipodi:nodetypes="ccc"
         inkscape:connector-curvature="0"
         id="path1247"
         d="m 68.474452,162.69372 -0.545317,-2.77218 c -0.196934,0.43565 -0.504252,0.43515 -0.840724,0.17312"
         style="fill:none;stroke:#000000;stroke-width:0.26458332px;stroke-linecap:butt;stroke-linejoin:miter;stroke-opacity:1" />
    </g>
  </g>
</svg>
